

<svg aria-hidden="true" style="position: absolute; width: 0; height: 0; overflow: hidden;" version="1.1" xmlns="http://www.w3.org/2000/svg" xmlns:xlink="http://www.w3.org/1999/xlink">
    <defs>
        <symbol id="icon-trash" viewBox="0 0 44 42">
            <path d="M8.45 1.106l-0.45 0.894h-6c-1.106 0-2 0.894-2 2s0.894 2 2 2h24c1.106 0 2-0.894 2-2s-0.894-2-2-2h-6l-0.45-0.894c-0.337-0.681-1.031-1.106-1.788-1.106h-7.525c-0.756 0-1.45 0.425-1.787 1.106zM26 8h-24l1.325 21.188c0.1 1.581 1.413 2.813 2.994 2.813h15.362c1.581 0 2.894-1.231 2.994-2.813l1.325-21.188z"></path>
        </symbol>
    </defs>
</svg>